<?xml version="1.0" encoding="UTF-8" ?>
<!DOCTYPE svg PUBLIC "-//W3C//DTD SVG 1.1//EN" "http://www.w3.org/Graphics/SVG/1.1/DTD/svg11.dtd">
<svg width="400pt" height="400pt" viewBox="0 0 400 400" version="1.1" xmlns="http://www.w3.org/2000/svg">
<path fill="#ffffff" d=" M 0.00 0.00 L 400.00 0.00 L 400.00 400.00 L 0.00 400.00 L 0.00 0.00 Z" />
<path fill="#010101" d=" M 164.99 15.44 C 171.02 14.30 177.00 12.96 183.01 11.70 C 193.62 10.95 204.30 10.83 214.91 11.73 C 223.94 13.67 233.12 15.01 241.94 17.77 C 262.99 23.64 282.99 33.30 300.48 46.44 C 319.58 60.68 335.46 79.18 346.87 100.08 C 351.63 108.10 354.94 116.82 358.94 125.20 C 356.49 127.98 352.58 127.77 349.24 128.42 C 346.57 128.88 343.93 129.43 341.25 129.75 C 335.19 115.75 326.22 103.17 316.46 91.51 C 311.33 85.99 305.88 80.77 300.47 75.52 C 278.80 56.71 251.76 43.79 223.22 40.18 C 214.67 38.00 205.74 38.58 197.00 38.46 C 189.94 38.60 182.74 38.34 175.84 40.05 C 153.82 42.76 132.48 50.78 113.98 63.03 C 88.82 79.39 68.91 103.29 55.93 130.24 C 50.48 128.53 44.80 127.86 39.16 127.15 C 39.49 125.51 39.83 123.87 40.28 122.27 C 49.98 98.56 63.98 76.29 82.76 58.73 C 105.52 37.11 134.49 22.46 164.99 15.44 Z" />
<path fill="#6abcd7" d=" M 214.01 118.64 C 233.00 118.50 252.00 118.16 270.99 118.59 C 278.24 118.86 285.80 117.83 292.73 120.55 C 286.19 127.09 279.29 133.29 273.28 140.35 C 265.93 147.61 258.26 154.57 251.14 162.07 C 245.32 169.26 238.06 175.05 231.45 181.47 C 229.88 182.93 228.79 184.78 227.79 186.64 C 236.73 188.62 245.78 190.13 254.65 192.47 C 260.75 194.26 267.18 194.80 273.06 197.33 C 269.42 201.92 264.64 205.40 260.54 209.53 C 252.52 217.52 244.51 225.52 236.58 233.59 C 224.24 245.79 211.27 257.36 199.55 270.17 C 208.42 275.75 219.15 277.35 228.06 282.87 C 222.92 288.78 217.05 293.99 211.62 299.62 C 191.88 318.87 172.58 338.57 153.04 358.02 C 149.53 361.53 146.28 365.36 142.14 368.15 C 144.33 360.69 148.70 354.15 151.59 346.98 C 157.73 332.79 164.77 319.01 170.94 304.84 C 165.47 301.46 159.10 300.19 153.25 297.69 C 149.24 296.09 145.17 294.68 141.18 293.05 C 143.86 287.39 147.85 282.52 151.32 277.35 C 160.97 263.28 170.14 248.90 179.88 234.90 C 181.21 233.03 182.24 230.98 183.10 228.86 C 173.88 226.56 164.71 224.12 155.51 221.76 C 151.70 220.80 147.62 220.56 144.22 218.40 C 167.38 185.07 190.76 151.90 214.01 118.64 Z" />
<path fill="#b0dbf2" d=" M 37.69 126.67 C 38.53 125.19 39.38 123.71 40.28 122.27 C 39.83 123.87 39.49 125.51 39.16 127.15 C 44.80 127.86 50.48 128.53 55.93 130.24 C 57.58 130.82 58.55 132.59 59.17 134.13 C 58.43 142.53 56.26 150.73 54.72 159.00 C 54.29 161.21 53.76 163.69 51.78 165.06 C 48.14 165.04 44.63 163.93 41.12 163.11 C 41.00 165.18 40.86 167.26 40.68 169.34 C 40.23 167.49 39.87 165.62 39.53 163.74 C 36.53 163.28 33.55 162.62 30.51 162.42 C 28.60 161.47 26.73 160.28 25.42 158.55 C 23.99 151.88 27.11 145.44 28.03 138.93 C 28.76 134.98 28.84 130.58 31.41 127.28 C 33.47 126.85 35.59 126.80 37.69 126.67 Z" />
<path fill="#b0dbf2" d=" M 358.94 125.20 L 359.43 124.78 C 359.64 125.22 360.06 126.09 360.27 126.52 C 362.43 126.77 364.59 127.06 366.76 127.29 C 368.47 131.35 369.39 135.67 369.94 140.03 C 370.64 145.69 372.77 151.15 372.79 156.90 C 372.81 159.40 370.45 161.10 368.44 162.14 C 365.05 162.59 361.66 163.07 358.30 163.68 C 358.47 167.49 358.56 171.31 358.62 175.13 C 356.49 171.48 357.41 167.08 357.11 163.06 C 353.03 163.96 348.88 164.65 344.69 164.72 C 341.92 156.03 340.80 146.97 338.85 138.10 C 338.19 135.30 338.38 131.10 341.25 129.75 C 343.93 129.43 346.57 128.88 349.24 128.42 C 352.58 127.77 356.49 127.98 358.94 125.20 Z" />
<path fill="#010101" d=" M 28.62 162.72 C 29.10 162.65 30.04 162.50 30.51 162.42 C 33.55 162.62 36.53 163.28 39.53 163.74 C 39.42 169.98 39.43 176.32 37.90 182.41 C 37.83 181.99 37.69 181.15 37.62 180.73 C 37.21 185.81 37.75 190.94 37.13 196.01 C 36.03 203.83 37.01 211.77 36.13 219.61 C 36.05 221.37 34.35 222.22 33.14 223.19 C 25.69 228.18 19.58 235.02 14.82 242.58 C 13.01 236.18 14.05 229.47 12.58 223.03 C 12.36 215.91 12.62 208.78 12.44 201.66 C 14.09 200.52 15.80 199.27 17.90 199.27 C 21.67 198.56 24.15 201.99 27.28 203.36 C 27.25 189.79 28.30 176.28 28.62 162.72 Z" />
<path fill="#010101" d=" M 358.30 163.68 C 361.66 163.07 365.05 162.59 368.44 162.14 C 368.45 166.81 369.53 171.36 370.18 175.96 C 370.48 185.13 370.43 194.31 370.54 203.48 C 373.05 201.83 375.29 199.74 378.04 198.47 C 380.42 198.53 382.44 199.96 384.61 200.78 C 385.17 211.18 384.57 221.62 384.44 232.04 C 384.69 235.59 383.08 238.83 382.20 242.19 C 377.77 233.25 370.03 226.20 361.42 221.34 C 361.62 215.89 361.35 210.44 360.84 205.01 C 360.53 200.72 361.24 196.35 360.33 192.10 C 358.52 186.59 360.26 180.68 358.62 175.13 C 358.56 171.31 358.47 167.49 358.30 163.68 Z" />
<path fill="#b0dbf2" d=" M 37.62 180.73 C 37.69 181.15 37.83 181.99 37.90 182.41 C 37.64 195.25 37.93 208.10 37.79 220.95 C 44.61 217.83 51.81 215.70 59.15 214.19 C 59.45 215.15 59.72 216.13 59.98 217.11 C 61.08 222.34 60.33 227.75 61.22 233.03 C 61.12 238.74 62.57 244.30 62.64 250.00 C 63.98 260.44 63.34 271.07 65.46 281.44 C 65.51 288.57 66.61 295.63 66.84 302.76 C 67.66 308.07 67.06 313.51 68.33 318.77 C 69.86 331.57 69.29 344.56 71.66 357.27 C 71.54 364.21 72.47 371.10 72.66 378.04 C 72.80 381.16 73.79 384.17 74.87 387.08 C 73.86 385.71 72.87 384.33 71.89 382.95 C 58.53 383.38 45.07 379.71 33.84 372.44 C 33.27 372.83 32.70 373.24 32.14 373.65 L 31.87 373.30 C 28.58 369.16 24.61 365.63 20.69 362.10 C 20.43 365.48 20.36 368.88 20.32 372.28 C 19.56 368.26 20.23 364.19 19.90 360.16 C 18.82 356.62 16.08 353.91 14.44 350.64 C 5.54 333.61 2.47 314.05 3.11 295.00 C 2.60 281.54 5.06 268.09 9.63 255.45 C 11.45 251.20 13.22 246.92 14.82 242.58 C 19.58 235.02 25.69 228.18 33.14 223.19 C 34.35 222.22 36.05 221.37 36.13 219.61 C 37.01 211.77 36.03 203.83 37.13 196.01 C 37.75 190.94 37.21 185.81 37.62 180.73 Z" />
<path fill="#010101" d=" M 59.98 217.11 C 58.27 211.05 62.42 203.16 69.13 202.77 C 73.71 202.49 78.33 200.64 82.88 201.93 C 87.10 203.74 90.93 207.86 90.54 212.73 C 91.74 221.45 92.54 230.23 92.73 239.04 C 94.06 244.87 93.21 250.87 93.86 256.76 C 94.81 263.82 95.44 270.93 95.47 278.06 C 95.98 288.39 97.75 298.63 98.29 308.96 C 98.40 325.39 101.67 341.62 101.64 358.06 C 102.63 364.68 102.96 371.36 103.61 378.02 C 103.81 380.96 103.81 384.27 101.65 386.56 C 98.00 391.38 91.39 391.53 85.90 392.08 C 81.54 392.69 77.77 390.01 74.87 387.08 C 73.79 384.17 72.80 381.16 72.66 378.04 C 72.47 371.10 71.54 364.21 71.66 357.27 C 69.29 344.56 69.86 331.57 68.33 318.77 C 67.06 313.51 67.66 308.07 66.84 302.76 C 66.61 295.63 65.51 288.57 65.46 281.44 C 63.34 271.07 63.98 260.44 62.64 250.00 C 62.57 244.30 61.12 238.74 61.22 233.03 C 60.33 227.75 61.08 222.34 59.98 217.11 Z" />
<path fill="#010101" d=" M 312.86 202.92 C 317.49 199.69 322.99 202.92 328.04 202.71 C 332.06 202.49 334.71 205.71 337.27 208.27 C 337.81 217.26 337.86 226.38 336.13 235.26 C 335.58 238.52 335.80 241.85 335.34 245.12 C 333.78 253.22 335.29 261.59 333.45 269.66 C 332.39 273.89 332.85 278.27 332.32 282.55 C 330.75 290.81 332.13 299.32 330.45 307.56 C 329.04 313.29 329.76 319.23 329.20 325.06 C 328.24 332.70 328.28 340.45 326.57 347.98 C 326.92 359.55 324.82 370.99 324.49 382.54 C 323.31 388.52 317.52 393.46 311.26 392.20 C 305.52 390.79 297.49 391.19 294.97 384.61 C 293.45 379.65 294.46 374.29 294.63 369.20 C 295.56 364.22 295.38 359.14 295.90 354.13 C 297.37 345.16 296.82 335.99 298.32 327.02 C 298.70 321.72 298.98 316.40 299.35 311.10 C 299.40 303.80 300.09 296.55 300.60 289.28 C 302.68 280.66 301.09 271.72 301.43 262.96 C 301.64 267.10 301.48 271.27 302.19 275.37 C 302.70 271.27 302.35 267.12 302.78 263.01 C 303.76 257.56 302.91 251.93 304.51 246.57 C 304.63 235.68 306.27 224.89 306.55 214.00 C 307.43 209.83 308.52 204.84 312.86 202.92 Z" />
<path fill="#b0dbf2" d=" M 337.27 208.27 C 338.02 210.13 338.81 211.98 339.53 213.86 C 346.89 216.15 354.27 218.42 361.42 221.34 C 370.03 226.20 377.77 233.25 382.20 242.19 C 385.00 248.58 388.38 254.76 390.24 261.52 C 392.22 269.88 394.33 278.33 393.76 287.00 C 394.58 297.00 393.85 307.00 393.52 317.00 C 391.49 329.47 388.72 342.20 381.90 353.04 C 380.07 355.76 378.53 358.66 377.16 361.65 C 373.50 365.54 369.36 368.95 365.60 372.74 C 364.14 373.26 362.56 373.40 361.16 374.08 C 350.02 380.06 337.23 383.90 324.49 382.54 C 324.82 370.99 326.92 359.55 326.57 347.98 C 328.28 340.45 328.24 332.70 329.20 325.06 C 329.76 319.23 329.04 313.29 330.45 307.56 C 332.13 299.32 330.75 290.81 332.32 282.55 C 332.85 278.27 332.39 273.89 333.45 269.66 C 335.29 261.59 333.78 253.22 335.34 245.12 C 335.80 241.85 335.58 238.52 336.13 235.26 C 337.86 226.38 337.81 217.26 337.27 208.27 Z" />
<path fill="#6abcd7" d=" M 93.86 256.76 C 96.23 259.64 95.58 263.53 95.99 266.98 C 96.67 274.32 96.93 281.69 97.05 289.06 C 97.09 293.11 98.83 296.91 98.78 300.97 C 98.88 309.65 100.29 318.26 100.40 326.95 C 100.37 331.69 101.79 336.27 101.91 341.00 C 102.23 350.69 103.23 360.35 103.76 370.04 C 104.29 375.54 106.85 381.95 102.78 386.73 C 99.97 391.50 94.14 392.66 89.03 392.65 C 85.33 392.54 81.17 393.34 77.92 391.14 C 76.43 390.21 75.71 388.54 74.87 387.08 C 77.77 390.01 81.54 392.69 85.90 392.08 C 91.39 391.53 98.00 391.38 101.65 386.56 C 103.81 384.27 103.81 380.96 103.61 378.02 C 102.96 371.36 102.63 364.68 101.64 358.06 C 101.67 341.62 98.40 325.39 98.29 308.96 C 97.75 298.63 95.98 288.39 95.47 278.06 C 95.44 270.93 94.81 263.82 93.86 256.76 Z" />
<path fill="#6abcd7" d=" M 297.69 324.70 C 298.87 319.81 296.96 314.57 299.11 309.85 L 299.35 311.10 C 298.98 316.40 298.70 321.72 298.32 327.02 C 296.82 335.99 297.37 345.16 295.90 354.13 C 295.38 359.14 295.56 364.22 294.63 369.20 C 294.46 374.29 293.45 379.65 294.97 384.61 C 297.49 391.19 305.52 390.79 311.26 392.20 C 305.80 392.53 299.13 392.32 295.53 387.53 C 291.81 383.19 293.44 377.14 293.31 371.95 C 293.07 367.19 295.37 362.77 295.20 358.02 C 295.00 348.97 296.19 339.97 296.57 330.94 C 296.70 328.82 297.25 326.77 297.69 324.70 Z" />
<path fill="#010101" d=" M 365.60 372.74 C 369.36 368.95 373.50 365.54 377.16 361.65 C 377.98 365.60 378.32 369.87 376.05 373.43 C 372.57 373.42 368.88 374.20 365.60 372.74 Z" />
<path fill="#010101" d=" M 20.69 362.10 C 24.61 365.63 28.58 369.16 31.87 373.30 C 28.03 373.65 23.82 374.33 20.32 372.28 C 20.36 368.88 20.43 365.48 20.69 362.10 Z" />
</svg>
